<?xml version="1.0" encoding="utf-8"?>
<!-- Generator: Adobe Illustrator 25.4.2, SVG Export Plug-In . SVG Version: 6.00 Build 0)  -->
<svg version="1.1" id="Layer_1" xmlns="http://www.w3.org/2000/svg" xmlns:xlink="http://www.w3.org/1999/xlink" x="0px" y="0px"
	 viewBox="0 0 700 700" style="enable-background:new 0 0 700 700;" xml:space="preserve">
<style type="text/css">
	.st0{fill:#001CE4;}
</style>
<g>
	<path class="st0" d="M372.4,324.8c0,12.4-10,22.4-22.4,22.4s-22.4-10-22.4-22.4s10-22.4,22.4-22.4S372.4,312.4,372.4,324.8"/>
	<path class="st0" d="M372.4,235.2c0,12.4-10,22.4-22.4,22.4s-22.4-10-22.4-22.4s10-22.4,22.4-22.4S372.4,222.8,372.4,235.2"/>
	<path class="st0" d="M215.6,324.8v56c0,17.8,7.1,34.9,19.7,47.5c12.6,12.6,29.7,19.7,47.5,19.7h22.4v-44.8h-22.4
		c-5.9,0-11.6-2.4-15.8-6.6c-4.2-4.2-6.6-9.9-6.6-15.8v-56c0-16.6-6.1-32.5-17.2-44.8c11.1-12.3,17.2-28.2,17.2-44.8v-56
		c0-5.9,2.4-11.6,6.6-15.8c4.2-4.2,9.9-6.6,15.8-6.6h22.4V112h-22.4c-17.8,0-34.9,7.1-47.5,19.7c-12.6,12.6-19.7,29.7-19.7,47.5v56
		c0,5.9-2.4,11.6-6.6,15.8c-4.2,4.2-9.9,6.6-15.8,6.6h-22.4v44.8h22.4v0c5.9,0,11.6,2.4,15.8,6.6
		C213.2,313.2,215.6,318.9,215.6,324.8L215.6,324.8z"/>
	<path class="st0" d="M484.4,235.2v-56c0-17.8-7.1-34.9-19.7-47.5C452.1,119.1,435,112,417.2,112h-22.4v44.8h22.4
		c5.9,0,11.6,2.4,15.8,6.6c4.2,4.2,6.6,9.9,6.6,15.8v56c0,16.6,6.1,32.5,17.2,44.8c-11.1,12.3-17.2,28.2-17.2,44.8v56
		c0,5.9-2.4,11.6-6.6,15.8c-4.2,4.2-9.9,6.6-15.8,6.6h-22.4V448h22.4c17.8,0,34.9-7.1,47.5-19.7c12.6-12.6,19.7-29.7,19.7-47.5v-56
		c0-5.9,2.4-11.6,6.6-15.8c4.2-4.2,9.9-6.6,15.8-6.6h22.4v-44.8h-22.4c-5.9,0-11.6-2.4-15.8-6.6
		C486.8,246.8,484.4,241.1,484.4,235.2L484.4,235.2z"/>
</g>
</svg>
