<?xml version="1.0" encoding="utf-8"?>
<!-- Generator: Adobe Illustrator 25.4.2, SVG Export Plug-In . SVG Version: 6.00 Build 0)  -->
<svg version="1.1" id="Layer_1" xmlns="http://www.w3.org/2000/svg" xmlns:xlink="http://www.w3.org/1999/xlink" x="0px" y="0px"
	 viewBox="0 0 700 700" style="enable-background:new 0 0 700 700;" xml:space="preserve">
<style type="text/css">
	.st0{fill:#001CE4;}
</style>
<g>
	<path class="st0" d="M193.2,123.2h179.2V168H193.2V123.2z"/>
	<path class="st0" d="M417.2,123.2h89.6V168h-89.6V123.2z"/>
	<path class="st0" d="M305.2,302.4h201.6v44.8H305.2V302.4z"/>
	<path class="st0" d="M193.2,302.4h67.2v44.8h-67.2L193.2,302.4z"/>
	<path class="st0" d="M193.2,212.8H238v44.8h-44.8V212.8z"/>
	<path class="st0" d="M282.8,212.8h44.8v44.8h-44.8V212.8z"/>
	<path class="st0" d="M372.4,212.8h134.4v44.8H372.4V212.8z"/>
	<path class="st0" d="M462,392h44.8v44.8H462V392z"/>
	<path class="st0" d="M350,392h67.2v44.8H350V392z"/>
	<path class="st0" d="M193.2,392h112v44.8h-112L193.2,392z"/>
</g>
</svg>
