<?xml version="1.0" encoding="utf-8"?>
<!-- Generator: Adobe Illustrator 25.4.2, SVG Export Plug-In . SVG Version: 6.00 Build 0)  -->
<svg version="1.1" id="Layer_1" xmlns="http://www.w3.org/2000/svg" xmlns:xlink="http://www.w3.org/1999/xlink" x="0px" y="0px"
	 viewBox="0 0 700 700" style="enable-background:new 0 0 700 700;" xml:space="preserve">
<style type="text/css">
	.st0{fill:#001CE4;}
</style>
<g>
	<path class="st0" d="M243.6,319.2c-17.8,0-34.9,7.1-47.5,19.7s-19.7,29.7-19.7,47.5c0,17.8,7.1,34.9,19.7,47.5s29.7,19.7,47.5,19.7
		c17.8,0,34.9-7.1,47.5-19.7s19.7-29.7,19.7-47.5V364h78.4v22.4c0,17.8,7.1,34.9,19.7,47.5s29.7,19.7,47.5,19.7
		c17.8,0,34.9-7.1,47.5-19.7s19.7-29.7,19.7-47.5c0-17.8-7.1-34.9-19.7-47.5c-12.6-12.6-29.7-19.7-47.5-19.7H434v-78.4h22.4
		c17.8,0,34.9-7.1,47.5-19.7c12.6-12.6,19.7-29.7,19.7-47.5c0-17.8-7.1-34.9-19.7-47.5c-12.6-12.6-29.7-19.7-47.5-19.7
		c-17.8,0-34.9,7.1-47.5,19.7s-19.7,29.7-19.7,47.5V196h-78.4v-22.4c0-17.8-7.1-34.9-19.7-47.5s-29.7-19.7-47.5-19.7
		c-17.8,0-34.9,7.1-47.5,19.7s-19.7,29.7-19.7,47.5c0,17.8,7.1,34.9,19.7,47.5c12.6,12.6,29.7,19.7,47.5,19.7H266v78.4L243.6,319.2z
		 M266,386.4c0,5.9-2.4,11.6-6.6,15.8c-4.2,4.2-9.9,6.6-15.8,6.6c-5.9,0-11.6-2.4-15.8-6.6c-4.2-4.2-6.6-9.9-6.6-15.8
		c0-5.9,2.4-11.6,6.6-15.8c4.2-4.2,9.9-6.6,15.8-6.6H266L266,386.4z M456.4,364c5.9,0,11.6,2.4,15.8,6.6c4.2,4.2,6.6,9.9,6.6,15.8
		c0,5.9-2.4,11.6-6.6,15.8c-4.2,4.2-9.9,6.6-15.8,6.6c-5.9,0-11.6-2.4-15.8-6.6c-4.2-4.2-6.6-9.9-6.6-15.8V364L456.4,364z
		 M434,173.6c0-5.9,2.4-11.6,6.6-15.8c4.2-4.2,9.9-6.6,15.8-6.6c5.9,0,11.6,2.4,15.8,6.6c4.2,4.2,6.6,9.9,6.6,15.8
		c0,5.9-2.4,11.6-6.6,15.8c-4.2,4.2-9.9,6.6-15.8,6.6H434L434,173.6z M243.6,196c-5.9,0-11.6-2.4-15.8-6.6
		c-4.2-4.2-6.6-9.9-6.6-15.8c0-5.9,2.4-11.6,6.6-15.8c4.2-4.2,9.9-6.6,15.8-6.6c5.9,0,11.6,2.4,15.8,6.6c4.2,4.2,6.6,9.9,6.6,15.8
		V196L243.6,196z M310.8,240.8h78.4v78.4h-78.4V240.8z"/>
</g>
</svg>
