<?xml version="1.0" encoding="utf-8"?>
<!-- Generator: Adobe Illustrator 25.4.2, SVG Export Plug-In . SVG Version: 6.00 Build 0)  -->
<svg version="1.1" id="Layer_1" xmlns="http://www.w3.org/2000/svg" xmlns:xlink="http://www.w3.org/1999/xlink" x="0px" y="0px"
	 viewBox="0 0 700 700" style="enable-background:new 0 0 700 700;" xml:space="preserve">
<style type="text/css">
	.st0{fill:#001CE4;}
</style>
<g>
	<path class="st0" d="M249.2,347.2c13.9,0,27.4-4.3,38.8-12.4c11.3-8,19.9-19.4,24.5-32.4h38l43.3,54.2v0
		c-11.2,18.1-13.2,40.5-5.4,60.3c7.9,19.8,24.7,34.7,45.3,40.1c20.6,5.4,42.6,0.8,59.2-12.5c16.6-13.3,26-33.8,25.1-55
		c-0.8-21.3-11.7-40.9-29.3-52.9s-39.9-14.9-60-7.9L389.9,280l38.9-48.6c20.1,7,42.4,4.1,60-7.9s28.5-31.6,29.3-52.9
		c0.8-21.3-8.5-41.7-25.1-55c-16.6-13.3-38.6-18-59.2-12.5c-20.6,5.4-37.4,20.3-45.3,40.1c-7.9,19.8-5.9,42.2,5.4,60.3l-43.3,54.2
		h-38c-5.5-15.6-16.5-28.6-31-36.5c-14.5-7.9-31.4-10.3-47.5-6.6c-16.1,3.7-30.2,13.2-39.8,26.7c-9.5,13.5-13.8,30-11.9,46.4
		c1.9,16.4,9.7,31.5,22.1,42.5C216.7,341.2,232.7,347.2,249.2,347.2L249.2,347.2z M473.2,392c0,5.9-2.4,11.6-6.6,15.8
		c-4.2,4.2-9.9,6.6-15.8,6.6c-5.9,0-11.6-2.4-15.8-6.6c-4.2-4.2-6.6-9.9-6.6-15.8s2.4-11.6,6.6-15.8c4.2-4.2,9.9-6.6,15.8-6.6
		c5.9,0,11.6,2.4,15.8,6.6C470.8,380.4,473.2,386.1,473.2,392z M450.8,145.6c5.9,0,11.6,2.4,15.8,6.6c4.2,4.2,6.6,9.9,6.6,15.8
		s-2.4,11.6-6.6,15.8c-4.2,4.2-9.9,6.6-15.8,6.6c-5.9,0-11.6-2.4-15.8-6.6c-4.2-4.2-6.6-9.9-6.6-15.8s2.4-11.6,6.6-15.8
		C439.2,148,444.9,145.6,450.8,145.6z M249.2,257.6c5.9,0,11.6,2.4,15.8,6.6c4.2,4.2,6.6,9.9,6.6,15.8s-2.4,11.6-6.6,15.8
		c-4.2,4.2-9.9,6.6-15.8,6.6c-5.9,0-11.6-2.4-15.8-6.6c-4.2-4.2-6.6-9.9-6.6-15.8s2.4-11.6,6.6-15.8
		C237.6,260,243.3,257.6,249.2,257.6z"/>
</g>
</svg>
