<?xml version="1.0" encoding="utf-8"?>
<!-- Generator: Adobe Illustrator 25.4.2, SVG Export Plug-In . SVG Version: 6.00 Build 0)  -->
<svg version="1.1" id="Layer_1" xmlns="http://www.w3.org/2000/svg" xmlns:xlink="http://www.w3.org/1999/xlink" x="0px" y="0px"
	 viewBox="0 0 700 700" style="enable-background:new 0 0 700 700;" xml:space="preserve">
<style type="text/css">
	.st0{fill:#001CE4;}
</style>
<g>
	<path class="st0" d="M327.6,212.8v93.5c-20.1,7.1-35.6,23.3-41.9,43.7c-6.2,20.4-2.4,42.5,10.2,59.6c12.7,17.1,32.7,27.2,54,27.2
		s41.4-10.1,54-27.2c12.7-17.1,16.5-39.3,10.2-59.6c-6.2-20.4-21.8-36.6-41.9-43.7v-93.5L327.6,212.8z M350,392
		c-5.9,0-11.6-2.4-15.8-6.6c-4.2-4.2-6.6-9.9-6.6-15.8c0-5.9,2.4-11.6,6.6-15.8c4.2-4.2,9.9-6.6,15.8-6.6s11.6,2.4,15.8,6.6
		c4.2,4.2,6.6,9.9,6.6,15.8c0,5.9-2.4,11.6-6.6,15.8C361.6,389.6,355.9,392,350,392z"/>
	<path class="st0" d="M226.8,291.2c0-44,23.5-84.7,61.6-106.7c38.1-22,85.1-22,123.2,0c38.1,22,61.6,62.7,61.6,106.7v22.4H518v-22.4
		c0-44.6-17.7-87.3-49.2-118.8c-31.5-31.5-74.2-49.2-118.8-49.2s-87.3,17.7-118.8,49.2c-31.5,31.5-49.2,74.2-49.2,118.8v22.4h44.8
		L226.8,291.2z"/>
</g>
</svg>
