<?xml version="1.0" encoding="utf-8"?>
<!-- Generator: Adobe Illustrator 25.4.2, SVG Export Plug-In . SVG Version: 6.00 Build 0)  -->
<svg version="1.1" id="Layer_1" xmlns="http://www.w3.org/2000/svg" xmlns:xlink="http://www.w3.org/1999/xlink" x="0px" y="0px"
	 viewBox="0 0 700 700" style="enable-background:new 0 0 700 700;" xml:space="preserve">
<style type="text/css">
	.st0{fill:#001CE4;}
</style>
<g>
	<path class="st0" d="M506.8,369.6V190.4c0-51.1-67.2-89.6-156.8-89.6c-89.6,0-156.8,38.5-156.8,89.6v179.2
		c0,51.1,67.2,89.6,156.8,89.6C439.6,459.2,506.8,420.7,506.8,369.6z M350,145.6c68.4,0,112,26.5,112,44.8s-43.6,44.8-112,44.8
		s-112-26.5-112-44.8S281.6,145.6,350,145.6z M238,254.3c28,16.1,67.2,25.7,112,25.7s84-9.6,112-25.7V280c0,18.3-43.6,44.8-112,44.8
		S238,298.3,238,280V254.3z M238,369.6v-25.7c28,16.1,67.2,25.7,112,25.7s84-9.6,112-25.7v25.7c0,18.3-43.6,44.8-112,44.8
		C281.6,414.4,238,387.9,238,369.6z"/>
</g>
</svg>
