<?xml version="1.0" encoding="utf-8"?>
<!-- Generator: Adobe Illustrator 25.4.2, SVG Export Plug-In . SVG Version: 6.00 Build 0)  -->
<svg version="1.1" id="Layer_1" xmlns="http://www.w3.org/2000/svg" xmlns:xlink="http://www.w3.org/1999/xlink" x="0px" y="0px"
	 viewBox="0 0 700 700" style="enable-background:new 0 0 700 700;" xml:space="preserve">
<style type="text/css">
	.st0{fill:#001CE4;}
</style>
<g>
	<path class="st0" d="M282.8,123.2H238c-11.9,0-23.3,4.7-31.7,13.1c-8.4,8.4-13.1,19.8-13.1,31.7v224c0,11.9,4.7,23.3,13.1,31.7
		c8.4,8.4,19.8,13.1,31.7,13.1h224c11.9,0,23.3-4.7,31.7-13.1c8.4-8.4,13.1-19.8,13.1-31.7v-44.8c0-11.9-4.7-23.3-13.1-31.7
		c-8.4-8.4-19.8-13.1-31.7-13.1h-44.8v-44.8c0-11.9-4.7-23.3-13.1-31.7s-19.8-13.1-31.7-13.1h-44.8V168c0-11.9-4.7-23.3-13.1-31.7
		C306.1,127.9,294.7,123.2,282.8,123.2L282.8,123.2z M282.8,392H238v-44.8h44.8V392z M282.8,302.4H238v-44.8h44.8V302.4z
		 M282.8,212.8l-44.8,0V168h44.8V212.8z M417.2,347.2H462V392h-44.8V347.2z M372.4,392h-44.8v-44.8h44.8L372.4,392z M372.4,257.6
		v44.8l-44.8,0v-44.8L372.4,257.6z"/>
</g>
</svg>
