<?xml version="1.0" encoding="utf-8"?>
<!-- Generator: Adobe Illustrator 25.4.2, SVG Export Plug-In . SVG Version: 6.00 Build 0)  -->
<svg version="1.1" id="Layer_1" xmlns="http://www.w3.org/2000/svg" xmlns:xlink="http://www.w3.org/1999/xlink" x="0px" y="0px"
	 viewBox="0 0 700 700" style="enable-background:new 0 0 700 700;" xml:space="preserve">
<style type="text/css">
	.st0{fill:#001CE4;}
</style>
<g>
	<path class="st0" d="M473.2,134.4H357.5l-38.8-29.1c-3.9-2.9-8.6-4.5-13.4-4.5h-78.4c-14.9,0-29.1,5.9-39.6,16.4
		c-10.5,10.5-16.4,24.7-16.4,39.6v246.4c0,14.9,5.9,29.1,16.4,39.6c10.5,10.5,24.7,16.4,39.6,16.4h246.4c14.9,0,29.1-5.9,39.6-16.4
		c10.5-10.5,16.4-24.7,16.4-39.6V190.4c0-14.9-5.9-29.1-16.4-39.6C502.3,140.3,488.1,134.4,473.2,134.4L473.2,134.4z M226.8,145.6
		h71l38.8,29.1l0,0c3.9,2.9,8.6,4.5,13.4,4.5h123.2c3,0,5.8,1.2,7.9,3.3c2.1,2.1,3.3,4.9,3.3,7.9v22.4l-145.6,0
		c-4.8,0-9.6,1.6-13.4,4.5l-38.8,29.1h-70.9v-89.6C215.6,150.6,220.6,145.6,226.8,145.6L226.8,145.6z M473.2,414.4H226.8
		c-6.2,0-11.2-5-11.2-11.2v-112H294c4.8,0,9.6-1.6,13.4-4.5l38.8-29.1h138.1v145.6c0,3-1.2,5.8-3.3,7.9
		C479,413.2,476.2,414.4,473.2,414.4L473.2,414.4z"/>
</g>
</svg>
