<?xml version="1.0" encoding="utf-8"?>
<!-- Generator: Adobe Illustrator 25.4.2, SVG Export Plug-In . SVG Version: 6.00 Build 0)  -->
<svg version="1.1" id="Layer_1" xmlns="http://www.w3.org/2000/svg" xmlns:xlink="http://www.w3.org/1999/xlink" x="0px" y="0px"
	 viewBox="0 0 700 700" style="enable-background:new 0 0 700 700;" xml:space="preserve">
<style type="text/css">
	.st0{fill:#001CE4;}
</style>
<g>
	<path class="st0" d="M350,448c35.6,0,69.8-14.2,95-39.4c25.2-25.2,39.4-59.4,39.4-95V168c0-14.9-5.9-29.1-16.4-39.6
		c-10.5-10.5-24.7-16.4-39.6-16.4H271.6c-14.9,0-29.1,5.9-39.6,16.4c-10.5,10.5-16.4,24.7-16.4,39.6v145.6c0,35.6,14.2,69.8,39.4,95
		C280.2,433.8,314.4,448,350,448L350,448z M372.4,156.8h56c3,0,5.8,1.2,7.9,3.3c2.1,2.1,3.3,4.9,3.3,7.9v56h-67.2L372.4,156.8z
		 M260.4,168c0-6.2,5-11.2,11.2-11.2h56V224h-67.2V168z M260.4,268.8h179.2v44.8c0,32-17.1,61.6-44.8,77.6c-27.7,16-61.9,16-89.6,0
		c-27.7-16-44.8-45.6-44.8-77.6L260.4,268.8z"/>
</g>
</svg>
