<?xml version="1.0" encoding="utf-8"?>
<!-- Generator: Adobe Illustrator 25.4.2, SVG Export Plug-In . SVG Version: 6.00 Build 0)  -->
<svg version="1.1" id="Layer_1" xmlns="http://www.w3.org/2000/svg" xmlns:xlink="http://www.w3.org/1999/xlink" x="0px" y="0px"
	 viewBox="0 0 700 700" style="enable-background:new 0 0 700 700;" xml:space="preserve">
<style type="text/css">
	.st0{fill:#001CE4;}
</style>
<g>
	<path class="st0" d="M462,123.2H282.8c-17.8,0-34.9,7.1-47.5,19.7c-12.6,12.6-19.7,29.7-19.7,47.5v112h-44.8v67.2
		c0,17.8,7.1,34.9,19.7,47.5c12.6,12.6,29.7,19.7,47.5,19.7h134.4c17.8,0,34.9-7.1,47.5-19.7s19.7-29.7,19.7-47.5v-112h89.6v-67.2
		c0-17.8-7.1-34.9-19.7-47.5C496.9,130.3,479.8,123.2,462,123.2L462,123.2z M215.6,369.6v-22.4h89.6v22.4c0,7.6,1.3,15.2,3.9,22.4
		H238c-5.9,0-11.6-2.4-15.8-6.6C218,381.2,215.6,375.5,215.6,369.6L215.6,369.6z M394.8,369.6c0,8-4.3,15.4-11.2,19.4
		c-6.9,4-15.5,4-22.4,0c-6.9-4-11.2-11.4-11.2-19.4v-67.2h-89.6v-112c0-5.9,2.4-11.6,6.6-15.8c4.2-4.2,9.9-6.6,15.8-6.6h115.9
		c-2.6,7.2-3.9,14.8-3.9,22.4L394.8,369.6z M484.4,212.8h-44.8v-22.4c0-8,4.3-15.4,11.2-19.4c6.9-4,15.5-4,22.4,0
		c6.9,4,11.2,11.4,11.2,19.4L484.4,212.8z"/>
</g>
</svg>
