<?xml version="1.0" encoding="utf-8"?>
<!-- Generator: Adobe Illustrator 25.4.2, SVG Export Plug-In . SVG Version: 6.00 Build 0)  -->
<svg version="1.1" id="Layer_1" xmlns="http://www.w3.org/2000/svg" xmlns:xlink="http://www.w3.org/1999/xlink" x="0px" y="0px"
	 viewBox="0 0 700 700" style="enable-background:new 0 0 700 700;" xml:space="preserve">
<style type="text/css">
	.st0{fill:#001CE4;}
</style>
<g>
	<path class="st0" d="M238,436.8h224c17.8,0,34.9-7.1,47.5-19.7c12.6-12.6,19.7-29.7,19.7-47.5V190.4c0-17.8-7.1-34.9-19.7-47.5
		c-12.6-12.6-29.7-19.7-47.5-19.7h-67.2V168h-89.6v-44.8H238c-17.8,0-34.9,7.1-47.5,19.7c-12.6,12.6-19.7,29.7-19.7,47.5v179.2
		c0,17.8,7.1,34.9,19.7,47.5C203.1,429.7,220.2,436.8,238,436.8L238,436.8z M439.6,212.8V168H462c5.9,0,11.6,2.4,15.8,6.6
		c4.2,4.2,6.6,9.9,6.6,15.8v115.9c-7.2-2.6-14.8-3.9-22.4-3.9h-22.4L439.6,212.8z M215.6,190.4c0-5.9,2.4-11.6,6.6-15.8
		c4.2-4.2,9.9-6.6,15.8-6.6h22.4v134.4H238c-7.6,0-15.2,1.3-22.4,3.9L215.6,190.4z M238,347.2h67.2V212.8h89.6v134.4H462
		c8,0,15.4,4.3,19.4,11.2c4,6.9,4,15.5,0,22.4c-4,6.9-11.4,11.2-19.4,11.2H238c-8,0-15.4-4.3-19.4-11.2c-4-6.9-4-15.5,0-22.4
		C222.6,351.5,230,347.2,238,347.2L238,347.2z"/>
</g>
</svg>
