<?xml version="1.0" encoding="utf-8"?>
<!-- Generator: Adobe Illustrator 25.4.2, SVG Export Plug-In . SVG Version: 6.00 Build 0)  -->
<svg version="1.1" id="Layer_1" xmlns="http://www.w3.org/2000/svg" xmlns:xlink="http://www.w3.org/1999/xlink" x="0px" y="0px"
	 viewBox="0 0 700 700" style="enable-background:new 0 0 700 700;" xml:space="preserve">
<style type="text/css">
	.st0{fill:#001CE4;}
</style>
<g>
	<path class="st0" d="M224.1,326.9l-40.4,23.4L206,389l40.5-23.4h0c5.4,6.5,11.4,12.5,17.9,17.9L241,424l38.8,22.4l23.4-40.4v0
		c7.9,2.9,16.1,5.1,24.4,6.5v46.7h44.8l0-46.7c8.3-1.4,16.5-3.6,24.5-6.6l23.4,40.4L459,424l-23.4-40.5v0
		c6.5-5.4,12.5-11.4,17.9-17.9L494,389l22.4-38.8L476,326.8h0c2.9-7.9,5.1-16.1,6.5-24.4h46.7v-44.8h-46.7
		c-1.4-8.3-3.6-16.5-6.6-24.5l40.4-23.4L494,171l-40.5,23.4h0c-5.4-6.5-11.4-12.5-17.9-17.9L459,136l-38.8-22.4L396.8,154v0
		c-7.9-2.9-16.1-5.1-24.4-6.5v-46.7h-44.8v46.7c-8.3,1.4-16.5,3.6-24.5,6.6l-23.4-40.4L241,136l23.4,40.5v0
		c-6.5,5.4-12.5,11.4-17.9,17.9L206,171l-22.4,38.8l40.4,23.4h0c-2.9,7.9-5.1,16.1-6.5,24.4h-46.7v44.8h46.7v0
		C218.9,310.7,221.1,318.9,224.1,326.9L224.1,326.9z M350,305.9l63.8,36.8C397,359.8,374,369.5,350,369.5s-47-9.6-63.9-26.8
		L350,305.9z M372.4,267.1v-73.7c23.3,5.9,43.2,21,55.2,41.8s15.1,45.6,8.6,68.7L372.4,267.1z M327.6,267.1l-63.8,36.8
		c-6.5-23.1-3.4-47.9,8.6-68.7c12-20.8,31.9-35.9,55.2-41.8L327.6,267.1z"/>
</g>
</svg>
