<?xml version="1.0" encoding="utf-8"?>
<!-- Generator: Adobe Illustrator 25.4.2, SVG Export Plug-In . SVG Version: 6.00 Build 0)  -->
<svg version="1.1" id="Layer_1" xmlns="http://www.w3.org/2000/svg" xmlns:xlink="http://www.w3.org/1999/xlink" x="0px" y="0px"
	 viewBox="0 0 700 700" style="enable-background:new 0 0 700 700;" xml:space="preserve">
<style type="text/css">
	.st0{fill:#001CE4;}
</style>
<g>
	<path class="st0" d="M254.8,246.4h26.3c4.6,13.1,13.2,24.4,24.5,32.4c11.3,8,24.9,12.3,38.8,12.4h100.8c24,0,46.2-12.8,58.2-33.6
		c12-20.8,12-46.4,0-67.2c-12-20.8-34.2-33.6-58.2-33.6H344.4c-13.9,0-27.4,4.3-38.8,12.4c-11.3,8-19.9,19.4-24.5,32.4h-26.3
		c-5.9,0-11.6-2.4-15.8-6.6c-4.2-4.2-6.6-9.9-6.6-15.8v-78.4h-44.8v246.4c0,17.8,7.1,34.9,19.7,47.5c12.6,12.6,29.7,19.7,47.5,19.7
		h26.3c4.6,13.1,13.2,24.4,24.5,32.4c11.3,8,24.9,12.3,38.8,12.4h100.8c24,0,46.2-12.8,58.2-33.6c12-20.8,12-46.4,0-67.2
		c-12-20.8-34.2-33.6-58.2-33.6H344.4c-13.9,0-27.4,4.3-38.8,12.4c-11.3,8-19.9,19.4-24.5,32.4h-26.3c-5.9,0-11.6-2.4-15.8-6.6
		c-4.2-4.2-6.6-9.9-6.6-15.8V242.5C239.6,245.1,247.2,246.4,254.8,246.4L254.8,246.4z M344.4,201.6l100.8,0c8,0,15.4,4.3,19.4,11.2
		c4,6.9,4,15.5,0,22.4c-4,6.9-11.4,11.2-19.4,11.2H344.4c-8,0-15.4-4.3-19.4-11.2c-4-6.9-4-15.5,0-22.4
		C329,205.9,336.4,201.6,344.4,201.6L344.4,201.6z M344.4,369.6l100.8,0c8,0,15.4,4.3,19.4,11.2c4,6.9,4,15.5,0,22.4
		c-4,6.9-11.4,11.2-19.4,11.2H344.4c-8,0-15.4-4.3-19.4-11.2c-4-6.9-4-15.5,0-22.4C329,373.9,336.4,369.6,344.4,369.6L344.4,369.6z"
		/>
</g>
</svg>
